<?xml version="1.0" encoding="UTF-8"?>
<svg width="552.67" height="109.41" version="1.1" viewBox="0 0 146.23 28.947" xmlns="http://www.w3.org/2000/svg" xmlns:cc="http://creativecommons.org/ns#" xmlns:dc="http://purl.org/dc/elements/1.1/" xmlns:osb="http://www.openswatchbook.org/uri/2009/osb" xmlns:rdf="http://www.w3.org/1999/02/22-rdf-syntax-ns#" xmlns:xlink="http://www.w3.org/1999/xlink">
 <defs>
  <linearGradient id="linearGradient64" x1="146.65" x2="84.667" y1="95.628" y2="97.14" gradientUnits="userSpaceOnUse">
   <stop stop-color="#f60" offset="0"/>
   <stop stop-color="#f00" offset="1"/>
  </linearGradient>
  <clipPath id="clipPath4025">
   <ellipse cx="51.009" cy="99.5" rx="2.8339" ry="2.7079" fill="#e3dbdb" stroke-width=".26458"/>
  </clipPath>
  <filter id="filter4069" color-interpolation-filters="sRGB">
   <feFlood flood-color="rgb(200,55,55)" result="result1"/>
   <feImage result="result2" xlink:href=""/>
   <feBlend in2="result1" mode="multiply" result="result4"/>
   <feMerge result="result3">
    <feMergeNode in="result1"/>
    <feMergeNode in="SourceGraphic"/>
   </feMerge>
  </filter>
  <clipPath id="clipPath4426">
   <path d="m159.33 347.78v5.0176h1.0215c0.0641-0.45032 0.14912-0.9018 0.28125-1.3555 0.13466-0.46239 0.40858-0.87547 0.66797-1.2812 0.86991-1.3609 1.2477-1.7835 1.8457-2.3809zm6.9043 3.832c-0.062 0.0694-0.13199 0.16864-0.1914 0.2461 0.0637 0.0797 0.13334 0.14779 0.1914 0.23828z" fill="#241c1c" stop-color="#000000" style="font-variation-settings:normal"/>
  </clipPath>
  <linearGradient id="linearGradient5168" x1="-162.51" x2="-126.36" y1="102.4" y2="102.9" gradientUnits="userSpaceOnUse">
   <stop stop-color="#f60" offset="0"/>
   <stop stop-color="#f00" offset="1"/>
  </linearGradient>
  <linearGradient id="linearGradient5170" x1="37.042" x2="57.452" y1="94.872" y2="94.872" gradientTransform="translate(.37798)" gradientUnits="userSpaceOnUse">
   <stop stop-color="#800000" offset="0"/>
   <stop stop-color="#f00" offset="1"/>
  </linearGradient>
 </defs>
 <metadata>
  <rdf:RDF>
   <cc:Work rdf:about="">
    <dc:format>image/svg+xml</dc:format>
    <dc:type rdf:resource="http://purl.org/dc/dcmitype/StillImage"/>
    <dc:title/>
   </cc:Work>
  </rdf:RDF>
 </metadata>
 <g transform="translate(.34611 -78.398)">
  <g>
   <text fill="#000000" font-family="sans-serif" font-size="10.583px" style="line-height:1.25;shape-inside:url(#rect12);white-space:pre" xml:space="preserve"/>
   <text transform="matrix(1.0209 0 0 1.014 165.94 -10.695)" fill="url(#linearGradient5168)" font-family="Ebrima" font-size="38.1px" style="line-height:1.25;shape-inside:url(#rect18);white-space:pre" xml:space="preserve"><tspan x="-163.28516" y="115.96132"><tspan fill="url(#linearGradient5168)" style="shape-inside:url(#rect18)">At</tspan></tspan></text>
   <g font-family="sans-serif">
    <text fill="#000000" font-size="10.583px" style="line-height:1.25;shape-inside:url(#rect26);white-space:pre" xml:space="preserve"/>
    <text transform="scale(.99306 1.007)" x="58.995857" y="106.22469" fill="#ff0000" font-size="37.301px" stroke-width=".26643" style="font-variant-caps:normal;font-variant-east-asian:normal;font-variant-ligatures:normal;font-variant-numeric:normal;line-height:1.25" xml:space="preserve"><tspan x="58.995857" y="106.22469" fill="#ff0000" font-family="sans-serif" font-size="37.301px" stroke-width=".26643" style="font-variant-caps:normal;font-variant-east-asian:normal;font-variant-ligatures:normal;font-variant-numeric:normal">Z</tspan></text>
    <text x="81.64286" y="107.34523" fill="url(#linearGradient64)" font-size="38.1px" stroke-width=".26458" style="line-height:1.25" xml:space="preserve"><tspan x="81.64286" y="107.34523" fill="url(#linearGradient64)" font-size="38.1px" stroke-width=".26458">Flix</tspan></text>
   </g>
  </g>
  <circle cx="47.625" cy="94.872" r="10.205" fill="url(#linearGradient5170)" stroke-width=".26458"/>
  <ellipse cx="47.735" cy="95.155" rx="5.5418" ry="5.6047" fill="#241c1c" stroke-width=".3522"/>
  <g fill="#e3dbdb" stroke-width=".26458">
   <ellipse cx="47.483" cy="89.676" rx="2.8339" ry="2.7079"/>
   <ellipse cx="44.397" cy="99.248" rx="2.8339" ry="2.7079"/>
   <ellipse cx="42.697" cy="93.58" rx="2.8339" ry="2.7079"/>
  </g>
  <g clip-path="url(#clipPath4025)" filter="url(#filter4069)">
   <path d="m42.56 92.683c-0.20007 0.30341-0.26966 0.66109-0.40083 0.99265-0.10356 0.24419-0.13631 0.50515-0.1535 0.76722-0.02096 0.28205-0.01812 0.55422 0.05653 0.82762 0.10495 0.28223 0.21688 0.56589 0.49341 0.71386 1.6734 0.26203 1.8745-1.076 2.0061-2.0638 0.04478-0.38856 0.10206-0.69472-0.07062-1.057-0.14358-0.27205-0.40304-0.41401-0.65571-0.56634l-1.6147 1.0417c0.21703 0.13729 0.47142 0.23102 0.59914 0.47042 0.13755 0.30181 0.06877 0.63028 0.03785 0.95026-0.03404 0.23834-0.06517 0.48055-0.14548 0.70906-0.02262 0.06436-0.14502 0.2153-0.0829 0.18712 1.4971-0.67921 1.7954-1.4051 1.5151-0.76768-0.23598 0.05549-0.32771-0.37646-0.39618-0.52863-0.05517-0.2558-0.04077-0.5154-0.02217-0.77534 0.02498-0.24747 0.07632-0.48832 0.16972-0.71995 0.10571-0.33403 0.21544-0.66805 0.428-0.95288 0 0-1.7638 0.7717-1.7638 0.7717z" fill="#e3dbdb" stroke-width=".26458"/>
   <g fill="#241c1c">
    <g stroke-width=".26458">
     <path d="m42.474 93.115c-0.09723 0.50782-0.14665 1.0238-0.17469 1.5396 0.02551 0.35092-0.05182 0.80276 0.20463 1.0852 1.893-1.1245 1.6987-0.50622 1.7208-1.8273-0.02474-0.26899 0.02148-0.47115 0.11716-0.71596l-1.7406 0.81404c-0.07912 0.25129-0.0913 0.50309-0.0806 0.766-4e-3 0.17869-0.0056 0.35822-0.02593 0.53604-0.0861 0.75136-1.0114 0.77669 1.5965-0.69098 0.0046 0.02474 0.0266 0.05264 0.01371 0.07425-0.0093 0.01556-0.02508-0.02726-0.03168-0.04412-0.01714-0.04388-0.02903-0.08982-0.03871-0.13593-0.03407-0.16237-0.03999-0.27364-0.04482-0.4429-0.0026-0.08859-7.94e-4 -0.17724-0.0011-0.26587 0.03627-0.51001 0.07426-1.0264 0.22419-1.518l-1.7388 0.82586z"/>
     <path d="m42.882 94.019c-0.0241 0.16034-0.03494 0.3192-0.03518 0.48109 0 0 1.7088-0.86546 1.7088-0.86546 0.0078-0.156 0.02357-0.31016 0.05913-0.46277l-1.7328 0.84714z"/>
     <circle cx="43.764" cy="93.502" r=".017163" stroke="#000"/>
     <circle cx="43.764" cy="93.502" r=".017163" stroke="#000"/>
    </g>
    <g>
     <path d="m42.91 94.222c0.02357 0.32515-0.01297 0.65276 0.02582 0.97703 0.01072 0.0896 0.06834 0.38466 0.0854 0.47441 0.13953 0.54848 0.3095 1.0915 0.51492 1.6189 0.02734 0.06803 0.05469 0.13607 0.08203 0.2041 0 0 1.6604-0.931 1.6604-0.931-0.02904-0.0661-0.05807-0.1322-0.0871-0.1983-0.21502-0.51176-0.37122-1.0461-0.4936-1.5873-0.08619-0.47336-0.1148-0.94663-0.08036-1.4279l-1.7075 0.87002z" stroke-width=".26458"/>
     <path d="m42.95 93.072c-0.22513 0.35354-0.31235 0.74527-0.37093 1.1535-0.06775 0.4395-0.05608 0.87351 0.15091 1.2725 0.26435 0.37758 0.70638 0.2482 1.0641 0.09743 0.58737-0.34905 1.1788-0.69133 1.7621-1.0471 0.19947-0.12167 0.28263-0.34295 0.33171-0.55717 0.04076-0.26988 0.04989-0.54492 0.01431-0.81542-0.02249-0.31276-0.20232-0.5622-0.37331-0.81224-0.08844-0.12293-0.19938-0.22294-0.31357-0.32067l-1.6262 1.0199c0.10572 0.08056 0.20373 0.16647 0.2857 0.27231 0.15341 0.22564 0.31606 0.44482 0.32809 0.7284 0.0172 0.25 0.01032 0.50666-0.05468 0.74996-0.26723 0.66457-1.8746 1.2387 1.1377-0.41356-0.17199 0.10484-0.6066 0.34112-0.80999 0.23379-0.03595-0.01897-0.05644-0.0585-0.08466-0.08776-0.19987-0.35878-0.16331-0.7627-0.1044-1.157 0.06866-0.39212 0.18671-0.76442 0.42683-1.0886 0 0-1.7638 0.7717-1.7638 0.7717z" stroke-width=".26458"/>
     <path transform="scale(.26458)" d="m166.24 347.78-6.4102 3.0215c-0.16473 0.66545-0.3294 1.3306-0.49414 1.9961l6.2637-2.9785c0.21346-0.67973 0.42715-1.3593 0.64062-2.0391z" clip-path="url(#clipPath4426)"/>
    </g>
   </g>
  </g>
  <ellipse cx="50.568" cy="99.374" rx="2.8339" ry="2.7079" fill="#e3dbdb" stroke-width=".26458"/>
  <ellipse cx="52.378" cy="93.53" rx="2.8339" ry="2.7079" fill="#e3dbdb" stroke-width=".26458"/>
  <ellipse cx="47.546" cy="95.042" rx="1.6688" ry="1.6189" fill="#fff" opacity=".87419" stroke-dasharray="0, 3.13268" stroke-linecap="round" stroke-linejoin="round" stroke-width=".28479"/>
 </g>
 <path d="m56.967 17.701c3.911-0.06501 6.8755-4.8712 8.0516-7.5321l2.7271 1.6882c-3.6609 6.7444-7.6901 8.3503-11.947 10.519z" fill="#f00" opacity=".87419" stroke="#000" stroke-dasharray="0, 0.291042" stroke-dashoffset=".26458" stroke-linecap="round" stroke-linejoin="round" stroke-width=".026458" style="mix-blend-mode:multiply"/>
 <circle cx="48.094" cy="16.712" r="0" fill="#e3dbdb" opacity=".87419" stroke-dasharray="0, 0.291042" stroke-dashoffset=".26458" stroke-linecap="round" stroke-linejoin="round" stroke-width=".026458"/>
</svg>
