<?xml version="1.0" standalone="no"?>
<!DOCTYPE svg PUBLIC "-//W3C//DTD SVG 20010904//EN"
 "http://www.w3.org/TR/2001/REC-SVG-20010904/DTD/svg10.dtd">
<svg version="1.0" xmlns="http://www.w3.org/2000/svg"
 width="720.000000pt" height="720.000000pt" viewBox="0 0 720.000000 720.000000"
 preserveAspectRatio="xMidYMid meet">
<metadata>
Created by potrace 1.11, written by Peter Selinger 2001-2013
</metadata>
<g transform="translate(0.000000,720.000000) scale(0.100000,-0.100000)"
fill="#000000" stroke="none">
<path d="M1210 6297 l0 -413 1866 0 c1026 1 1870 -1 1874 -4 5 -3 -10 -26 -33
-51 -23 -25 -57 -64 -75 -87 -19 -22 -44 -52 -55 -65 -24 -26 -119 -135 -154
-176 -67 -80 -178 -210 -202 -236 -15 -16 -67 -77 -117 -135 -105 -124 -132
-156 -159 -185 -11 -13 -36 -42 -56 -66 -21 -24 -48 -56 -60 -70 -13 -14 -40
-45 -59 -69 -19 -23 -44 -52 -55 -64 -29 -32 -83 -95 -135 -156 -43 -52 -216
-253 -287 -335 -20 -22 -56 -64 -82 -94 -25 -30 -64 -75 -86 -101 -22 -25 -62
-72 -90 -105 -65 -76 -114 -133 -142 -162 -13 -13 -23 -26 -23 -28 0 -3 -8
-13 -17 -23 -10 -10 -38 -42 -63 -72 -25 -29 -50 -58 -55 -64 -6 -6 -78 -90
-160 -186 -83 -96 -154 -180 -160 -186 -24 -27 -110 -128 -129 -152 -11 -15
-28 -34 -37 -42 -9 -8 -54 -60 -100 -115 -46 -55 -93 -109 -104 -121 -11 -12
-38 -43 -60 -69 -22 -27 -49 -59 -60 -71 -11 -13 -38 -44 -60 -70 -22 -26 -52
-60 -67 -76 -16 -16 -28 -31 -28 -34 0 -3 -10 -15 -22 -28 -13 -12 -39 -42
-58 -66 -19 -24 -42 -51 -51 -59 -8 -9 -55 -63 -105 -121 -49 -58 -103 -121
-121 -140 -17 -19 -42 -48 -55 -65 -13 -16 -30 -37 -38 -45 -8 -9 -33 -37 -55
-63 -22 -27 -49 -58 -60 -70 -11 -13 -40 -47 -65 -76 -25 -30 -51 -60 -58 -68
-8 -7 -39 -44 -71 -81 -64 -76 -85 -101 -123 -144 l-28 -32 0 -473 0 -473
2528 0 2528 0 1 410 c0 289 -3 410 -11 413 -6 2 -875 3 -1931 2 -1056 0 -1926
1 -1933 3 -11 4 50 88 92 127 6 6 36 39 66 75 30 36 57 67 60 70 3 3 43 50 90
105 47 55 89 105 95 111 5 6 31 35 56 65 107 126 191 222 202 234 7 7 30 34
52 61 22 26 47 55 55 64 8 9 31 36 51 60 20 25 47 57 60 71 13 14 47 52 74 85
50 59 92 107 110 128 6 6 35 40 65 76 30 36 60 70 65 76 12 14 103 119 130
151 11 13 34 39 50 57 17 18 48 55 70 82 22 26 47 55 55 64 8 9 51 58 95 110
44 52 82 97 85 100 3 3 34 39 70 80 36 41 69 80 75 86 5 7 24 29 41 50 18 22
42 51 55 65 13 14 46 52 74 85 27 32 54 64 60 70 5 6 30 35 55 64 25 29 50 58
55 64 6 6 37 42 70 81 33 38 65 75 70 81 6 6 30 35 55 64 25 29 50 58 55 64 6
6 48 56 95 111 89 105 128 150 145 169 6 6 35 40 65 76 30 36 64 74 75 86 11
12 34 39 52 60 17 22 40 48 50 59 10 11 33 38 52 60 83 98 138 161 159 183 12
12 22 25 22 28 0 3 12 18 28 34 15 15 36 38 46 51 29 35 250 293 315 368 118
136 137 158 178 206 43 52 47 57 128 150 l50 57 1 474 1 474 -2459 0 -2458 0
0 -413z"/>
</g>
</svg>
